# xmcd
#
# Track frame offsets: 
#        183
#        15340
#        39500
#        59213
#        75005
#        90220
#        114855
#        121115
#        176205
#        189063
#        217485
#        233490
#        252615
#        267535
#        289515
#
# Disc length: 4450 seconds
#
# Revision: 9
# Processed by: cddbd v1.5.2PL0 Copyright (c) Steve Scherf et al.
# Submitted via: ExactAudioCopy v1.0b3
#
DISCID=c211600f
DTITLE=Various Artist - Nothin' But The Blues - Disc 2
DYEAR=1998
DGENRE=Blues
TTITLE0=Isaac Scott - Help
TTITLE1=U.P. Wilson with Paul Orta and The Kingpins - Baby What You Want
TTITLE1=Me to Do
TTITLE2=Fenton Robinson - Somebody Loan Me A Dime
TTITLE3=Clarence Edwards - Rocky Mountains
TTITLE4=Buddy Guy and Junior Wells - Hoodoo Man
TTITLE5=Byther Smith - Hold That Train
TTITLE6=Muddy Waters - Baby Please Don't Go
TTITLE7=Luther "Guitar Junior" Johnson with The Muddy Waters Band - I 
TTITLE7=Got a Mind to Travel
TTITLE8=John Lee Hooker - My Baby's Got Something
TTITLE9=Billy Boy Arnold with Tony McPhee - Blue And Lonesome
TTITLE10=Buddy Reed - Rialto Rock
TTITLE11=Sunnyland Slim - Soft and Mellow Stella
TTITLE12=Greg "Fingers" Taylor with Anson Funderburgh and The Rockets - 
TTITLE12=Soul Survivor
TTITLE13=The Mighty Houserockers featuring Les Wilson - Blue Light
TTITLE14=Luther Allison - The Thrill is Gone
EXTD=YEAR: 1998
EXTT0=
EXTT1=
EXTT2=
EXTT3=
EXTT4=
EXTT5=
EXTT6=
EXTT7=
EXTT8=
EXTT9=
EXTT10=
EXTT11=
EXTT12=
EXTT13=
EXTT14=
PLAYORDER=
